# xmcd CD database file
#
# Track frame offsets:
#	150
#	14805
#	38550
#	55185
#	76950
#
# Disc length: 1261 seconds
#
# Revision: 0
# Processed by: cddbd v1.5.1PL2 Copyright (c) Steve Scherf et al.
# Submitted via: CDex 1.51
#
DISCID=3504eb05
DTITLE=WAR-HEADZ - -SPYDER-
DYEAR=2004
DGENRE=Hard Rock
TTITLE0=SMOKIN'ROCK
TTITLE1=BLAZE
TTITLE2=弾頭
TTITLE3=祭壇
TTITLE4=SPYDER
EXTD=YEAR: 2004
EXTT0=
EXTT1=
EXTT2=
EXTT3=
EXTT4=
PLAYORDER=
